<svg id="SvgjsSvg1271" width="1046.1000061035156" height="1267.6749877929688" xmlns="http://www.w3.org/2000/svg" version="1.1" xmlns:xlink="http://www.w3.org/1999/xlink" xmlns:svgjs="http://svgjs.com/svgjs"><defs id="SvgjsDefs1272"><marker id="SvgjsMarker1281" markerWidth="16" markerHeight="12" refX="16" refY="6" viewBox="0 0 16 12" orient="auto" markerUnits="userSpaceOnUse" stroke-dasharray="0,0"><path id="SvgjsPath1282" d="M0,2 L14,6 L0,11 L0,2" fill="#323232" stroke="#323232" stroke-width="2"></path></marker><marker id="SvgjsMarker1291" markerWidth="16" markerHeight="12" refX="16" refY="6" viewBox="0 0 16 12" orient="auto" markerUnits="userSpaceOnUse" stroke-dasharray="0,0"><path id="SvgjsPath1292" d="M0,2 L14,6 L0,11 L0,2" fill="#323232" stroke="#323232" stroke-width="2"></path></marker><marker id="SvgjsMarker1305" markerWidth="16" markerHeight="12" refX="16" refY="6" viewBox="0 0 16 12" orient="auto" markerUnits="userSpaceOnUse" stroke-dasharray="0,0"><path id="SvgjsPath1306" d="M0,2 L14,6 L0,11 L0,2" fill="#323232" stroke="#323232" stroke-width="2"></path></marker><marker id="SvgjsMarker1319" markerWidth="16" markerHeight="12" refX="16" refY="6" viewBox="0 0 16 12" orient="auto" markerUnits="userSpaceOnUse" stroke-dasharray="0,0"><path id="SvgjsPath1320" d="M0,2 L14,6 L0,11 L0,2" fill="#323232" stroke="#323232" stroke-width="2"></path></marker><marker id="SvgjsMarker1323" markerWidth="16" markerHeight="12" refX="16" refY="6" viewBox="0 0 16 12" orient="auto" markerUnits="userSpaceOnUse" stroke-dasharray="0,0"><path id="SvgjsPath1324" d="M0,2 L14,6 L0,11 L0,2" fill="#323232" stroke="#323232" stroke-width="2"></path></marker><marker id="SvgjsMarker1333" markerWidth="16" markerHeight="12" refX="16" refY="6" viewBox="0 0 16 12" orient="auto" markerUnits="userSpaceOnUse" stroke-dasharray="0,0"><path id="SvgjsPath1334" d="M0,2 L14,6 L0,11 L0,2" fill="#323232" stroke="#323232" stroke-width="2"></path></marker><marker id="SvgjsMarker1347" markerWidth="16" markerHeight="12" refX="16" refY="6" viewBox="0 0 16 12" orient="auto" markerUnits="userSpaceOnUse" stroke-dasharray="0,0"><path id="SvgjsPath1348" d="M0,2 L14,6 L0,11 L0,2" fill="#323232" stroke="#323232" stroke-width="2"></path></marker><marker id="SvgjsMarker1359" markerWidth="16" markerHeight="12" refX="16" refY="6" viewBox="0 0 16 12" orient="auto" markerUnits="userSpaceOnUse" stroke-dasharray="0,0"><path id="SvgjsPath1360" d="M0,2 L14,6 L0,11 L0,2" fill="#323232" stroke="#323232" stroke-width="2"></path></marker><marker id="SvgjsMarker1377" markerWidth="16" markerHeight="12" refX="16" refY="6" viewBox="0 0 16 12" orient="auto" markerUnits="userSpaceOnUse" stroke-dasharray="0,0"><path id="SvgjsPath1378" d="M0,2 L14,6 L0,11 L0,2" fill="#323232" stroke="#323232" stroke-width="2"></path></marker><marker id="SvgjsMarker1389" markerWidth="16" markerHeight="12" refX="16" refY="6" viewBox="0 0 16 12" orient="auto" markerUnits="userSpaceOnUse" stroke-dasharray="0,0"><path id="SvgjsPath1390" d="M0,2 L14,6 L0,11 L0,2" fill="#323232" stroke="#323232" stroke-width="2"></path></marker><marker id="SvgjsMarker1397" markerWidth="16" markerHeight="12" refX="16" refY="6" viewBox="0 0 16 12" orient="auto" markerUnits="userSpaceOnUse" stroke-dasharray="0,0"><path id="SvgjsPath1398" d="M0,2 L14,6 L0,11 L0,2" fill="#323232" stroke="#323232" stroke-width="2"></path></marker><marker id="SvgjsMarker1401" markerWidth="16" markerHeight="12" refX="16" refY="6" viewBox="0 0 16 12" orient="auto" markerUnits="userSpaceOnUse" stroke-dasharray="0,0"><path id="SvgjsPath1402" d="M0,2 L14,6 L0,11 L0,2" fill="#323232" stroke="#323232" stroke-width="2"></path></marker><marker id="SvgjsMarker1423" markerWidth="16" markerHeight="12" refX="16" refY="6" viewBox="0 0 16 12" orient="auto" markerUnits="userSpaceOnUse" stroke-dasharray="0,0"><path id="SvgjsPath1424" d="M0,2 L14,6 L0,11 L0,2" fill="#323232" stroke="#323232" stroke-width="2"></path></marker><marker id="SvgjsMarker1439" markerWidth="16" markerHeight="12" refX="16" refY="6" viewBox="0 0 16 12" orient="auto" markerUnits="userSpaceOnUse" stroke-dasharray="0,0"><path id="SvgjsPath1440" d="M0,2 L14,6 L0,11 L0,2" fill="#323232" stroke="#323232" stroke-width="2"></path></marker><marker id="SvgjsMarker1459" markerWidth="16" markerHeight="12" refX="16" refY="6" viewBox="0 0 16 12" orient="auto" markerUnits="userSpaceOnUse" stroke-dasharray="0,0"><path id="SvgjsPath1460" d="M0,2 L14,6 L0,11 L0,2" fill="#323232" stroke="#323232" stroke-width="2"></path></marker><marker id="SvgjsMarker1463" markerWidth="16" markerHeight="12" refX="16" refY="6" viewBox="0 0 16 12" orient="auto" markerUnits="userSpaceOnUse" stroke-dasharray="0,0"><path id="SvgjsPath1464" d="M0,2 L14,6 L0,11 L0,2" fill="#323232" stroke="#323232" stroke-width="2"></path></marker><marker id="SvgjsMarker1467" markerWidth="16" markerHeight="12" refX="16" refY="6" viewBox="0 0 16 12" orient="auto" markerUnits="userSpaceOnUse" stroke-dasharray="0,0"><path id="SvgjsPath1468" d="M0,2 L14,6 L0,11 L0,2" fill="#323232" stroke="#323232" stroke-width="2"></path></marker><marker id="SvgjsMarker1471" markerWidth="16" markerHeight="12" refX="16" refY="6" viewBox="0 0 16 12" orient="auto" markerUnits="userSpaceOnUse" stroke-dasharray="0,0"><path id="SvgjsPath1472" d="M0,2 L14,6 L0,11 L0,2" fill="#323232" stroke="#323232" stroke-width="2"></path></marker><marker id="SvgjsMarker1485" markerWidth="16" markerHeight="12" refX="16" refY="6" viewBox="0 0 16 12" orient="auto" markerUnits="userSpaceOnUse" stroke-dasharray="0,0"><path id="SvgjsPath1486" d="M0,2 L14,6 L0,11 L0,2" fill="#323232" stroke="#323232" stroke-width="2"></path></marker><marker id="SvgjsMarker1489" markerWidth="16" markerHeight="12" refX="16" refY="6" viewBox="0 0 16 12" orient="auto" markerUnits="userSpaceOnUse" stroke-dasharray="0,0"><path id="SvgjsPath1490" d="M0,2 L14,6 L0,11 L0,2" fill="#323232" stroke="#323232" stroke-width="2"></path></marker><marker id="SvgjsMarker1493" markerWidth="16" markerHeight="12" refX="16" refY="6" viewBox="0 0 16 12" orient="auto" markerUnits="userSpaceOnUse" stroke-dasharray="0,0"><path id="SvgjsPath1494" d="M0,2 L14,6 L0,11 L0,2" fill="#323232" stroke="#323232" stroke-width="2"></path></marker><marker id="SvgjsMarker1497" markerWidth="16" markerHeight="12" refX="16" refY="6" viewBox="0 0 16 12" orient="auto" markerUnits="userSpaceOnUse" stroke-dasharray="0,0"><path id="SvgjsPath1498" d="M0,2 L14,6 L0,11 L0,2" fill="#323232" stroke="#323232" stroke-width="2"></path></marker><marker id="SvgjsMarker1501" markerWidth="16" markerHeight="12" refX="16" refY="6" viewBox="0 0 16 12" orient="auto" markerUnits="userSpaceOnUse" stroke-dasharray="0,0"><path id="SvgjsPath1502" d="M0,2 L14,6 L0,11 L0,2" fill="#323232" stroke="#323232" stroke-width="2"></path></marker><marker id="SvgjsMarker1505" markerWidth="16" markerHeight="12" refX="16" refY="6" viewBox="0 0 16 12" orient="auto" markerUnits="userSpaceOnUse" stroke-dasharray="0,0"><path id="SvgjsPath1506" d="M0,2 L14,6 L0,11 L0,2" fill="#323232" stroke="#323232" stroke-width="2"></path></marker><marker id="SvgjsMarker1509" markerWidth="16" markerHeight="12" refX="16" refY="6" viewBox="0 0 16 12" orient="auto" markerUnits="userSpaceOnUse" stroke-dasharray="0,0"><path id="SvgjsPath1510" d="M0,2 L14,6 L0,11 L0,2" fill="#323232" stroke="#323232" stroke-width="2"></path></marker></defs><g id="SvgjsG1273" transform="translate(259.11112636990083,25.011074490017364)"><path id="SvgjsPath1274" d="M 20 0L 130 0C 156.66666666666666 0 156.66666666666666 60 130 60L 20 60C -6.666666666666667 60 -6.666666666666667 0 20 0Z" stroke="rgba(50,50,50,1)" stroke-width="2" fill-opacity="1" fill="#ffffff"></path><g id="SvgjsG1275"><text id="SvgjsText1276" font-family="微软雅黑" text-anchor="middle" font-size="16px" width="130px" fill="#323232" font-weight="700" align="middle" anchor="middle" family="微软雅黑" size="16px" weight="700" font-style="" opacity="1" y="17.6" transform="rotate(0)"><tspan id="SvgjsTspan1277" dy="20" x="75"><tspan id="SvgjsTspan1278" style="text-decoration:;">raw data</tspan></tspan></text></g></g><g id="SvgjsG1279"><path id="SvgjsPath1280" d="M334.11112636990083 85.01107449001736L334.11112636990083 113.45551893446176L334.11112636990083 113.45551893446176L334.11112636990083 144.01107449001736" stroke="#323232" stroke-width="2" fill="none" marker-end="url(#SvgjsMarker1281)"></path></g><g id="SvgjsG1283" transform="translate(259.11112636990083,144.01107449001736)"><path id="SvgjsPath1284" d="M 0 30L 75 0L 150 30L 75 60L 0 30Z" stroke="rgba(50,50,50,1)" stroke-width="2" fill-opacity="1" fill="#ffffff"></path><g id="SvgjsG1285"><text id="SvgjsText1286" font-family="微软雅黑" text-anchor="middle" font-size="16px" width="130px" fill="#323232" font-weight="700" align="middle" anchor="middle" family="微软雅黑" size="16px" weight="700" font-style="" opacity="1" y="17.6" transform="rotate(0)"><tspan id="SvgjsTspan1287" dy="20" x="75"><tspan id="SvgjsTspan1288" style="text-decoration:;">split</tspan></tspan></text></g></g><g id="SvgjsG1289"><path id="SvgjsPath1290" d="M409.11112636990083 174.01107449001736L464.00001525878974 174.01107449001736L464.00001525878974 174.01107449001736L519.1111263699008 174.01107449001736" stroke="#323232" stroke-width="2" fill="none" marker-end="url(#SvgjsMarker1291)"></path><rect id="SvgjsRect1293" width="26" height="20" x="451.1111263699009" y="164.01107449001736" fill="#ffffff"></rect><text id="SvgjsText1294" font-family="微软雅黑" text-anchor="middle" font-size="16px" width="26px" fill="#323232" font-weight="700" align="top" anchor="middle" family="微软雅黑" size="16px" weight="700" font-style="" opacity="1" y="161.61107449001736" transform="rotate(0)"><tspan id="SvgjsTspan1295" dy="20" x="464.1111263699009"><tspan id="SvgjsTspan1296" style="text-decoration:;">yes</tspan></tspan></text></g><g id="SvgjsG1297" transform="translate(519.1111263699008,144.01107449001736)"><path id="SvgjsPath1298" d="M 0 0L 150 0L 150 60L 0 60Z" stroke="rgba(50,50,50,1)" stroke-width="2" fill-opacity="1" fill="#ffffff"></path><g id="SvgjsG1299"><text id="SvgjsText1300" font-family="微软雅黑" text-anchor="middle" font-size="16px" width="130px" fill="#323232" font-weight="700" align="middle" anchor="middle" family="微软雅黑" size="16px" weight="700" font-style="" opacity="1" y="17.6" transform="rotate(0)"><tspan id="SvgjsTspan1301" dy="20" x="75"><tspan id="SvgjsTspan1302" style="text-decoration:;">split raw data</tspan></tspan></text></g></g><g id="SvgjsG1303"><path id="SvgjsPath1304" d="M334.11112636990083 204.01107449001734L334.11112636990083 239.45551893446208L334.11112636990083 239.45551893446208L334.11112636990083 276.4555189344621" stroke="#323232" stroke-width="2" fill="none" marker-end="url(#SvgjsMarker1305)"></path><rect id="SvgjsRect1307" width="21" height="20" x="323.50001525878974" y="219.45551893446208" fill="#ffffff"></rect><text id="SvgjsText1308" font-family="微软雅黑" text-anchor="middle" font-size="16px" width="21px" fill="#323232" font-weight="700" align="top" anchor="middle" family="微软雅黑" size="16px" weight="700" font-style="" opacity="1" y="217.05551893446207" transform="rotate(0)"><tspan id="SvgjsTspan1309" dy="20" x="334.00001525878974"><tspan id="SvgjsTspan1310" style="text-decoration:;">no</tspan></tspan></text></g><g id="SvgjsG1311" transform="translate(259.11112636990083,276.4555189344621)"><path id="SvgjsPath1312" d="M 0 0L 150 0L 150 60L 0 60Z" stroke="rgba(50,50,50,1)" stroke-width="2" fill-opacity="1" fill="#ffffff"></path><g id="SvgjsG1313"><text id="SvgjsText1314" font-family="微软雅黑" text-anchor="middle" font-size="16px" width="130px" fill="#323232" font-weight="700" align="middle" anchor="middle" family="微软雅黑" size="16px" weight="700" font-style="" opacity="1" y="17.6" transform="rotate(0)"><tspan id="SvgjsTspan1315" dy="20" x="75"><tspan id="SvgjsTspan1316" style="text-decoration:;">filter</tspan></tspan></text></g></g><g id="SvgjsG1317"><path id="SvgjsPath1318" d="M594.1111263699008 204.01107449001734L594.1111263699008 306.4555189344621L409.11112636990083 306.4555189344621" stroke="#323232" stroke-width="2" fill="none" marker-end="url(#SvgjsMarker1319)"></path></g><g id="SvgjsG1321"><path id="SvgjsPath1322" d="M334.11112636990083 336.4555189344621L334.11112636990083 364.4555189344621L334.11112636990083 364.4555189344621L334.11112636990083 392.4555189344621" stroke="#323232" stroke-width="2" fill="none" marker-end="url(#SvgjsMarker1323)"></path></g><g id="SvgjsG1325" transform="translate(259.11112636990083,392.4555189344621)"><path id="SvgjsPath1326" d="M 0 30L 75 0L 150 30L 75 60L 0 30Z" stroke="rgba(50,50,50,1)" stroke-width="2" fill-opacity="1" fill="#ffffff"></path><g id="SvgjsG1327"><text id="SvgjsText1328" font-family="微软雅黑" text-anchor="middle" font-size="16px" width="130px" fill="#323232" font-weight="700" align="middle" anchor="middle" family="微软雅黑" size="16px" weight="700" font-style="" opacity="1" y="17.6" transform="rotate(0)"><tspan id="SvgjsTspan1329" dy="20" x="75"><tspan id="SvgjsTspan1330" style="text-decoration:;">QC</tspan></tspan></text></g></g><g id="SvgjsG1331"><path id="SvgjsPath1332" d="M259.11112636990083 422.4555189344621L96.00001525878986 422.4555189344621L96.00001525878986 55.011074490017364L259.11112636990083 55.011074490017364" stroke="#323232" stroke-width="2" fill="none" marker-end="url(#SvgjsMarker1333)"></path><rect id="SvgjsRect1335" width="26" height="20" x="83.00001525878986" y="228.73329671223973" fill="#ffffff"></rect><text id="SvgjsText1336" font-family="微软雅黑" text-anchor="middle" font-size="16px" width="26px" fill="#323232" font-weight="700" align="top" anchor="middle" family="微软雅黑" size="16px" weight="700" font-style="" opacity="1" y="226.33329671223973" transform="rotate(0)"><tspan id="SvgjsTspan1337" dy="20" x="96.00001525878986"><tspan id="SvgjsTspan1338" style="text-decoration:;">fail</tspan></tspan></text></g><g id="SvgjsG1339" transform="translate(259.11112636990083,558.0110744900173)"><path id="SvgjsPath1340" d="M 0 0L 150 0L 150 60L 0 60Z" stroke="rgba(50,50,50,1)" stroke-width="2" fill-opacity="1" fill="#ffffff"></path><g id="SvgjsG1341"><text id="SvgjsText1342" font-family="微软雅黑" text-anchor="middle" font-size="16px" width="130px" fill="#323232" font-weight="700" align="middle" anchor="middle" family="微软雅黑" size="16px" weight="700" font-style="" opacity="1" y="17.6" transform="rotate(0)"><tspan id="SvgjsTspan1343" dy="20" x="75"><tspan id="SvgjsTspan1344" style="text-decoration:;">alignment</tspan></tspan></text></g></g><g id="SvgjsG1345"><path id="SvgjsPath1346" d="M334.11112636990083 452.45551893446213L334.11112636990083 514.4555189344618L594.1111263699008 514.4555189344618L594.1111263699008 558.0110744900173" stroke="#323232" stroke-width="2" fill="none" marker-end="url(#SvgjsMarker1347)"></path></g><g id="SvgjsG1349" transform="translate(519.1111263699008,558.0110744900173)"><path id="SvgjsPath1350" d="M 0 52.5L 0 0L 150 0L 150 52.5Q 112.5 37.5 75 52.5Q 37.5 67.5 0 52.5Z" stroke="rgba(50,50,50,1)" stroke-width="2" fill-opacity="1" fill="#ffffff"></path><g id="SvgjsG1351"><text id="SvgjsText1352" font-family="微软雅黑" text-anchor="middle" font-size="16px" width="150px" fill="#323232" font-weight="700" align="middle" anchor="middle" family="微软雅黑" size="16px" weight="700" font-style="" opacity="1" y="4.6" transform="rotate(0)"><tspan id="SvgjsTspan1353" dy="20" x="75"><tspan id="SvgjsTspan1354" style="text-decoration:;">clean data </tspan></tspan><tspan id="SvgjsTspan1355" dy="20" x="75"><tspan id="SvgjsTspan1356" style="text-decoration:;">statistics</tspan></tspan></text></g></g><g id="SvgjsG1357"><path id="SvgjsPath1358" d="M334.11112636990083 618.0110744900173L334.11112636990083 642.7332967122397L334.11112636990083 642.7332967122397L334.11112636990083 667.4555189344622" stroke="#323232" stroke-width="2" fill="none" marker-end="url(#SvgjsMarker1359)"></path></g><g id="SvgjsG1361" transform="translate(259.11112636990083,667.4555189344622)"><path id="SvgjsPath1362" d="M 0 0L 150 0L 150 60L 0 60Z" stroke="rgba(50,50,50,1)" stroke-width="2" fill-opacity="1" fill="#ffffff"></path><g id="SvgjsG1363"><text id="SvgjsText1364" font-family="微软雅黑" text-anchor="middle" font-size="16px" width="130px" fill="#323232" font-weight="700" align="middle" anchor="middle" family="微软雅黑" size="16px" weight="700" font-style="" opacity="1" y="7.6" transform="rotate(0)"><tspan id="SvgjsTspan1365" dy="20" x="75"><tspan id="SvgjsTspan1366" style="text-decoration:;">mark </tspan></tspan><tspan id="SvgjsTspan1367" dy="20" x="75"><tspan id="SvgjsTspan1368" style="text-decoration:;">duplication</tspan></tspan></text></g></g><g id="SvgjsG1369" transform="translate(259.11112636990083,861.2332967122393)"><path id="SvgjsPath1370" d="M 0 0L 150 0L 150 60L 0 60Z" stroke="rgba(50,50,50,1)" stroke-width="2" fill-opacity="1" fill="#ffffff"></path><g id="SvgjsG1371"><text id="SvgjsText1372" font-family="微软雅黑" text-anchor="middle" font-size="16px" width="130px" fill="#323232" font-weight="700" align="middle" anchor="middle" family="微软雅黑" size="16px" weight="700" font-style="" opacity="1" y="17.6" transform="rotate(0)"><tspan id="SvgjsTspan1373" dy="20" x="75"><tspan id="SvgjsTspan1374" style="text-decoration:;">merge sam files</tspan></tspan></text></g></g><g id="SvgjsG1375"><path id="SvgjsPath1376" d="M259.11112636990083 891.2332967122393L217.00001525878974 891.2332967122393L217.00001525878974 891.2332967122393L175.00001525878997 891.2332967122393" stroke="#323232" stroke-width="2" fill="none" marker-end="url(#SvgjsMarker1377)"></path></g><g id="SvgjsG1379" transform="translate(25.000015258789716,861.2332967122393)"><path id="SvgjsPath1380" d="M 0 52.5L 0 0L 150 0L 150 52.5Q 112.5 37.5 75 52.5Q 37.5 67.5 0 52.5Z" stroke="rgba(50,50,50,1)" stroke-width="2" fill-opacity="1" fill="#ffffff"></path><g id="SvgjsG1381"><text id="SvgjsText1382" font-family="微软雅黑" text-anchor="middle" font-size="16px" width="150px" fill="#323232" font-weight="700" align="middle" anchor="middle" family="微软雅黑" size="16px" weight="700" font-style="" opacity="1" y="4.6" transform="rotate(0)"><tspan id="SvgjsTspan1383" dy="20" x="75"><tspan id="SvgjsTspan1384" style="text-decoration:;">alignment </tspan></tspan><tspan id="SvgjsTspan1385" dy="20" x="75"><tspan id="SvgjsTspan1386" style="text-decoration:;">statistics</tspan></tspan></text></g></g><g id="SvgjsG1387"><path id="SvgjsPath1388" d="M334.11112636990083 452.45551893446213L334.11112636990083 504.9555189344618L334.11112636990083 504.9555189344618L334.11112636990083 558.0110744900173" stroke="#323232" stroke-width="2" fill="none" marker-end="url(#SvgjsMarker1389)"></path><rect id="SvgjsRect1391" width="36" height="20" x="316.00001525878974" y="470.3305189344618" fill="#ffffff"></rect><text id="SvgjsText1392" font-family="微软雅黑" text-anchor="middle" font-size="16px" width="36px" fill="#323232" font-weight="700" align="top" anchor="middle" family="微软雅黑" size="16px" weight="700" font-style="" opacity="1" y="467.9305189344618" transform="rotate(0)"><tspan id="SvgjsTspan1393" dy="20" x="334.00001525878974"><tspan id="SvgjsTspan1394" style="text-decoration:;">pass</tspan></tspan></text></g><g id="SvgjsG1395"><path id="SvgjsPath1396" d="M334.11112636990083 921.2332967122393L334.11112636990083 980.2332967122393L205.00001525878986 980.2332967122393L205.00001525878986 1039.2332967122393" stroke="#323232" stroke-width="2" fill="none" marker-end="url(#SvgjsMarker1397)"></path></g><g id="SvgjsG1399"><path id="SvgjsPath1400" d="M334.11112636990083 921.2332967122393L334.11112636990083 980.2332967122393L463.00001525878974 980.2332967122393L463.00001525878974 1039.2332967122393" stroke="#323232" stroke-width="2" fill="none" marker-end="url(#SvgjsMarker1401)"></path></g><g id="SvgjsG1403" transform="translate(388.00001525878974,1039.2332967122393)"><path id="SvgjsPath1404" d="M 0 0L 150 0L 150 60L 0 60Z" stroke="rgba(50,50,50,1)" stroke-width="2" fill-opacity="1" fill="#ffffff"></path><g id="SvgjsG1405"><text id="SvgjsText1406" font-family="微软雅黑" text-anchor="middle" font-size="16px" width="130px" fill="#323232" font-weight="700" align="middle" anchor="middle" family="微软雅黑" size="16px" weight="700" font-style="" opacity="1" y="17.6" transform="rotate(0)"><tspan id="SvgjsTspan1407" dy="20" x="75"><tspan id="SvgjsTspan1408" style="text-decoration:;">CNV detection</tspan></tspan></text></g></g><g id="SvgjsG1409" transform="translate(130.00001525878974,1039.2332967122393)"><path id="SvgjsPath1410" d="M 0 0L 150 0L 150 60L 0 60Z" stroke="rgba(50,50,50,1)" stroke-width="2" fill-opacity="1" fill="#ffffff"></path><g id="SvgjsG1411"><text id="SvgjsText1412" font-family="微软雅黑" text-anchor="middle" font-size="16px" width="130px" fill="#323232" font-weight="700" align="middle" anchor="middle" family="微软雅黑" size="16px" weight="700" font-style="" opacity="1" y="17.6" transform="rotate(0)"><tspan id="SvgjsTspan1413" dy="20" x="75"><tspan id="SvgjsTspan1414" style="text-decoration:;">SV detection</tspan></tspan></text></g></g><g id="SvgjsG1415" transform="translate(640.1111263699008,781.2332967122393)"><path id="SvgjsPath1416" d="M 0 0L 150 0L 150 60L 0 60Z" stroke="rgba(50,50,50,1)" stroke-width="2" fill-opacity="1" fill="#ffffff"></path><g id="SvgjsG1417"><text id="SvgjsText1418" font-family="微软雅黑" text-anchor="middle" font-size="16px" width="130px" fill="#323232" font-weight="700" align="middle" anchor="middle" family="微软雅黑" size="16px" weight="700" font-style="" opacity="1" y="17.6" transform="rotate(0)"><tspan id="SvgjsTspan1419" dy="20" x="75"><tspan id="SvgjsTspan1420" style="text-decoration:;">call GVCF/VCF</tspan></tspan></text></g></g><g id="SvgjsG1421"><path id="SvgjsPath1422" d="M919.1111263699008 841.2332967122393L919.1111263699008 940.2332967122393L696.0000152587895 940.2332967122393L696.0000152587895 1039.2332967122393" stroke="#323232" stroke-width="2" fill="none" marker-end="url(#SvgjsMarker1423)"></path></g><g id="SvgjsG1425" transform="translate(621.00001525879,1039.2332967122393)"><path id="SvgjsPath1426" d="M 0 0L 150 0L 150 60L 0 60Z" stroke="rgba(50,50,50,1)" stroke-width="2" fill-opacity="1" fill="#ffffff"></path><g id="SvgjsG1427"><text id="SvgjsText1428" font-family="微软雅黑" text-anchor="middle" font-size="16px" width="130px" fill="#323232" font-weight="700" align="middle" anchor="middle" family="微软雅黑" size="16px" weight="700" font-style="" opacity="1" y="17.6" transform="rotate(0)"><tspan id="SvgjsTspan1429" dy="20" x="75"><tspan id="SvgjsTspan1430" style="text-decoration:;">SNP detection</tspan></tspan></text></g></g><g id="SvgjsG1431" transform="translate(871.1111263699008,1039.2332967122393)"><path id="SvgjsPath1432" d="M 0 0L 150 0L 150 60L 0 60Z" stroke="rgba(50,50,50,1)" stroke-width="2" fill-opacity="1" fill="#ffffff"></path><g id="SvgjsG1433"><text id="SvgjsText1434" font-family="微软雅黑" text-anchor="middle" font-size="16px" width="130px" fill="#323232" font-weight="700" align="middle" anchor="middle" family="微软雅黑" size="16px" weight="700" font-style="" opacity="1" y="17.6" transform="rotate(0)"><tspan id="SvgjsTspan1435" dy="20" x="75"><tspan id="SvgjsTspan1436" style="text-decoration:;">InDel detection</tspan></tspan></text></g></g><g id="SvgjsG1437"><path id="SvgjsPath1438" d="M919.1111263699008 841.2332967122393L919.1111263699008 940.2332967122393L946.1111263699008 940.2332967122393L946.1111263699008 1039.2332967122393" stroke="#323232" stroke-width="2" fill="none" marker-end="url(#SvgjsMarker1439)"></path></g><g id="SvgjsG1441" transform="translate(844.1111263699008,781.2332967122393)"><path id="SvgjsPath1442" d="M 0 0L 150 0L 150 60L 0 60Z" stroke="rgba(50,50,50,1)" stroke-width="2" fill-opacity="1" fill="#ffffff"></path><g id="SvgjsG1443"><text id="SvgjsText1444" font-family="微软雅黑" text-anchor="middle" font-size="13px" width="130px" fill="#323232" font-weight="700" align="middle" anchor="middle" family="微软雅黑" size="13px" weight="700" font-style="" opacity="1" y="4.05" transform="rotate(0)"><tspan id="SvgjsTspan1445" dy="16" x="75"><tspan id="SvgjsTspan1446" style="text-decoration:;">VQSR</tspan></tspan><tspan id="SvgjsTspan1447" dy="16" x="75"><tspan id="SvgjsTspan1448" style="text-decoration:;">(variant quality </tspan></tspan><tspan id="SvgjsTspan1449" dy="16" x="75"><tspan id="SvgjsTspan1450" style="text-decoration:;">score recalibration)</tspan></tspan></text></g></g><g id="SvgjsG1451" transform="translate(509.00001525878974,1182.677741156684)"><path id="SvgjsPath1452" d="M 20 0L 130 0C 156.66666666666666 0 156.66666666666666 60 130 60L 20 60C -6.666666666666667 60 -6.666666666666667 0 20 0Z" stroke="rgba(50,50,50,1)" stroke-width="2" fill-opacity="1" fill="#ffffff"></path><g id="SvgjsG1453"><text id="SvgjsText1454" font-family="微软雅黑" text-anchor="middle" font-size="16px" width="130px" fill="#323232" font-weight="700" align="middle" anchor="middle" family="微软雅黑" size="16px" weight="700" font-style="" opacity="1" y="17.6" transform="rotate(0)"><tspan id="SvgjsTspan1455" dy="20" x="75"><tspan id="SvgjsTspan1456" style="text-decoration:;">annotation</tspan></tspan></text></g></g><g id="SvgjsG1457"><path id="SvgjsPath1458" d="M205.00001525878986 1099.2332967122393L205.00001525878986 1140.9555189344617L584.00001525879 1140.9555189344617L584.00001525879 1182.677741156684" stroke="#323232" stroke-width="2" fill="none" marker-end="url(#SvgjsMarker1459)"></path></g><g id="SvgjsG1461"><path id="SvgjsPath1462" d="M463.00001525878974 1099.2332967122393L463.00001525878974 1140.9555189344617L584.00001525879 1140.9555189344617L584.00001525879 1182.677741156684" stroke="#323232" stroke-width="2" fill="none" marker-end="url(#SvgjsMarker1463)"></path></g><g id="SvgjsG1465"><path id="SvgjsPath1466" d="M696.0000152587895 1099.2332967122393L696.0000152587895 1140.9555189344617L584.00001525879 1140.9555189344617L584.00001525879 1182.677741156684" stroke="#323232" stroke-width="2" fill="none" marker-end="url(#SvgjsMarker1467)"></path></g><g id="SvgjsG1469"><path id="SvgjsPath1470" d="M946.1111263699008 1099.2332967122393L946.1111263699008 1140.9555189344617L584.00001525879 1140.9555189344617L584.00001525879 1182.677741156684" stroke="#323232" stroke-width="2" fill="none" marker-end="url(#SvgjsMarker1471)"></path></g><g id="SvgjsG1473" transform="translate(640.1111263699008,667.4555189344622)"><path id="SvgjsPath1474" d="M 0 0L 150 0L 150 60L 0 60Z" stroke="rgba(50,50,50,1)" stroke-width="2" fill-opacity="1" fill="#ffffff"></path><g id="SvgjsG1475"><text id="SvgjsText1476" font-family="微软雅黑" text-anchor="middle" font-size="13px" width="130px" fill="#323232" font-weight="700" align="middle" anchor="middle" family="微软雅黑" size="13px" weight="700" font-style="" opacity="1" y="4.05" transform="rotate(0)"><tspan id="SvgjsTspan1477" dy="16" x="75"><tspan id="SvgjsTspan1478" style="text-decoration:;">BQSR</tspan></tspan><tspan id="SvgjsTspan1479" dy="16" x="75"><tspan id="SvgjsTspan1480" style="text-decoration:;">(base quality score </tspan></tspan><tspan id="SvgjsTspan1481" dy="16" x="75"><tspan id="SvgjsTspan1482" style="text-decoration:;">recalibration)</tspan></tspan></text></g></g><g id="SvgjsG1483"><path id="SvgjsPath1484" d="M409.11112636990083 697.4555189344622L524.6111263699008 697.4555189344622L524.6111263699008 697.4555189344622L640.1111263699008 697.4555189344622" stroke-dasharray="8,5" stroke="#323232" stroke-width="2" fill="none" marker-end="url(#SvgjsMarker1485)"></path></g><g id="SvgjsG1487"><path id="SvgjsPath1488" d="M334.11112636990083 727.4555189344622L334.11112636990083 794.3444078233508L334.11112636990083 794.3444078233508L334.11112636990083 861.2332967122393" stroke="#323232" stroke-width="2" fill="none" marker-end="url(#SvgjsMarker1489)"></path></g><g id="SvgjsG1491"><path id="SvgjsPath1492" d="M715.1111263699008 727.4555189344622L715.1111263699008 754.3444078233508L715.1111263699008 754.3444078233508L715.1111263699008 781.2332967122393" stroke-dasharray="8,5" stroke="#323232" stroke-width="2" fill="none" marker-end="url(#SvgjsMarker1493)"></path></g><g id="SvgjsG1495"><path id="SvgjsPath1496" d="M790.1111263699008 811.2332967122393L817.1111263699008 811.2332967122393L817.1111263699008 811.2332967122393L844.1111263699008 811.2332967122393" stroke="#323232" stroke-width="2" fill="none" marker-end="url(#SvgjsMarker1497)"></path></g><g id="SvgjsG1499"><path id="SvgjsPath1500" d="M334.11112636990083 727.4555189344622L334.11112636990083 811.2332967122393L640.1111263699008 811.2332967122393" stroke="#323232" stroke-width="2" fill="none" marker-end="url(#SvgjsMarker1501)"></path></g><g id="SvgjsG1503"><path id="SvgjsPath1504" d="M715.1111263699008 841.2332967122393L715.1111263699008 940.2332967122393L696.00001525879 940.2332967122393L696.00001525879 1039.2332967122393" stroke-dasharray="8,5" stroke="#323232" stroke-width="2" fill="none" marker-end="url(#SvgjsMarker1505)"></path></g><g id="SvgjsG1507"><path id="SvgjsPath1508" d="M715.1111263699008 841.2332967122393L715.1111263699008 940.2332967122393L946.1111263699008 940.2332967122393L946.1111263699008 1039.2332967122393" stroke-dasharray="8,5" stroke="#323232" stroke-width="2" fill="none" marker-end="url(#SvgjsMarker1509)"></path></g></svg>